<svg id="visual" viewBox="0 0 900 600" width="900" height="600" xmlns="http://www.w3.org/2000/svg" xmlns:xlink="http://www.w3.org/1999/xlink" version="1.1"><rect x="0" y="0" width="900" height="600" fill="#030620"></rect><path d="M0 523L11.5 520.8C23 518.7 46 514.3 69 510.8C92 507.3 115 504.7 138.2 508.8C161.3 513 184.7 524 207.8 527.2C231 530.3 254 525.7 277 527.2C300 528.7 323 536.3 346 535.3C369 534.3 392 524.7 415.2 520.8C438.3 517 461.7 519 484.8 519.8C508 520.7 531 520.3 554 517.8C577 515.3 600 510.7 623 506.2C646 501.7 669 497.3 692.2 500.3C715.3 503.3 738.7 513.7 761.8 516.2C785 518.7 808 513.3 831 514.8C854 516.3 877 524.7 888.5 528.8L900 533L900 601L888.5 601C877 601 854 601 831 601C808 601 785 601 761.8 601C738.7 601 715.3 601 692.2 601C669 601 646 601 623 601C600 601 577 601 554 601C531 601 508 601 484.8 601C461.7 601 438.3 601 415.2 601C392 601 369 601 346 601C323 601 300 601 277 601C254 601 231 601 207.8 601C184.7 601 161.3 601 138.2 601C115 601 92 601 69 601C46 601 23 601 11.5 601L0 601Z" fill="#200052"></path><path d="M0 548L11.5 542.7C23 537.3 46 526.7 69 527.5C92 528.3 115 540.7 138.2 544.8C161.3 549 184.7 545 207.8 544.5C231 544 254 547 277 541.5C300 536 323 522 346 521.8C369 521.7 392 535.3 415.2 538.7C438.3 542 461.7 535 484.8 529C508 523 531 518 554 518.5C577 519 600 525 623 527.3C646 529.7 669 528.3 692.2 528.8C715.3 529.3 738.7 531.7 761.8 533.5C785 535.3 808 536.7 831 534C854 531.3 877 524.7 888.5 521.3L900 518L900 601L888.5 601C877 601 854 601 831 601C808 601 785 601 761.8 601C738.7 601 715.3 601 692.2 601C669 601 646 601 623 601C600 601 577 601 554 601C531 601 508 601 484.8 601C461.7 601 438.3 601 415.2 601C392 601 369 601 346 601C323 601 300 601 277 601C254 601 231 601 207.8 601C184.7 601 161.3 601 138.2 601C115 601 92 601 69 601C46 601 23 601 11.5 601L0 601Z" fill="#0a0833"></path><path d="M0 549L11.5 549.2C23 549.3 46 549.7 69 549.2C92 548.7 115 547.3 138.2 543.3C161.3 539.3 184.7 532.7 207.8 534.5C231 536.3 254 546.7 277 551C300 555.3 323 553.7 346 550.5C369 547.3 392 542.7 415.2 543.5C438.3 544.3 461.7 550.7 484.8 553.8C508 557 531 557 554 552.7C577 548.3 600 539.7 623 540.7C646 541.7 669 552.3 692.2 554.2C715.3 556 738.7 549 761.8 542.5C785 536 808 530 831 532.8C854 535.7 877 547.3 888.5 553.2L900 559L900 601L888.5 601C877 601 854 601 831 601C808 601 785 601 761.8 601C738.7 601 715.3 601 692.2 601C669 601 646 601 623 601C600 601 577 601 554 601C531 601 508 601 484.8 601C461.7 601 438.3 601 415.2 601C392 601 369 601 346 601C323 601 300 601 277 601C254 601 231 601 207.8 601C184.7 601 161.3 601 138.2 601C115 601 92 601 69 601C46 601 23 601 11.5 601L0 601Z" fill="#00010e"></path><path d="M0 545L11.5 545.8C23 546.7 46 548.3 69 550.7C92 553 115 556 138.2 558.3C161.3 560.7 184.7 562.3 207.8 559.2C231 556 254 548 277 547.5C300 547 323 554 346 554.5C369 555 392 549 415.2 548.2C438.3 547.3 461.7 551.7 484.8 553.2C508 554.7 531 553.3 554 553C577 552.7 600 553.3 623 551.8C646 550.3 669 546.7 692.2 549.8C715.3 553 738.7 563 761.8 562.5C785 562 808 551 831 547.7C854 544.3 877 548.7 888.5 550.8L900 553L900 601L888.5 601C877 601 854 601 831 601C808 601 785 601 761.8 601C738.7 601 715.3 601 692.2 601C669 601 646 601 623 601C600 601 577 601 554 601C531 601 508 601 484.8 601C461.7 601 438.3 601 415.2 601C392 601 369 601 346 601C323 601 300 601 277 601C254 601 231 601 207.8 601C184.7 601 161.3 601 138.2 601C115 601 92 601 69 601C46 601 23 601 11.5 601L0 601Z" fill="#00010e"></path><path d="M0 570L11.5 571.2C23 572.3 46 574.7 69 573.7C92 572.7 115 568.3 138.2 568.2C161.3 568 184.7 572 207.8 574.7C231 577.3 254 578.7 277 576C300 573.3 323 566.7 346 563.3C369 560 392 560 415.2 561.2C438.3 562.3 461.7 564.7 484.8 567.7C508 570.7 531 574.3 554 574.3C577 574.3 600 570.7 623 569.3C646 568 669 569 692.2 569C715.3 569 738.7 568 761.8 565.3C785 562.7 808 558.3 831 558.8C854 559.3 877 564.7 888.5 567.3L900 570L900 601L888.5 601C877 601 854 601 831 601C808 601 785 601 761.8 601C738.7 601 715.3 601 692.2 601C669 601 646 601 623 601C600 601 577 601 554 601C531 601 508 601 484.8 601C461.7 601 438.3 601 415.2 601C392 601 369 601 346 601C323 601 300 601 277 601C254 601 231 601 207.8 601C184.7 601 161.3 601 138.2 601C115 601 92 601 69 601C46 601 23 601 11.5 601L0 601Z" fill="#0a0833"></path><path d="M0 574L11.5 577C23 580 46 586 69 585.5C92 585 115 578 138.2 574.7C161.3 571.3 184.7 571.7 207.8 574.8C231 578 254 584 277 587.5C300 591 323 592 346 590.5C369 589 392 585 415.2 583.2C438.3 581.3 461.7 581.7 484.8 580.3C508 579 531 576 554 575.5C577 575 600 577 623 578.2C646 579.3 669 579.7 692.2 581.7C715.3 583.7 738.7 587.3 761.8 586.7C785 586 808 581 831 581.2C854 581.3 877 586.7 888.5 589.3L900 592L900 601L888.5 601C877 601 854 601 831 601C808 601 785 601 761.8 601C738.7 601 715.3 601 692.2 601C669 601 646 601 623 601C600 601 577 601 554 601C531 601 508 601 484.8 601C461.7 601 438.3 601 415.2 601C392 601 369 601 346 601C323 601 300 601 277 601C254 601 231 601 207.8 601C184.7 601 161.3 601 138.2 601C115 601 92 601 69 601C46 601 23 601 11.5 601L0 601Z" fill="#200052">
</path></svg>