<svg id="visual" viewBox="0 0 900 600" width="900" height="600" xmlns="http://www.w3.org/2000/svg" xmlns:xlink="http://www.w3.org/1999/xlink" version="1.1"><rect x="0" y="0" width="900" height="600" fill="#030620"></rect><path d="M0 328L15 332.5C30 337 60 346 90 356.5C120 367 150 379 180 372.7C210 366.3 240 341.7 270 330.8C300 320 330 323 360 331.2C390 339.3 420 352.7 450 355.8C480 359 510 352 540 343.7C570 335.3 600 325.7 630 324.5C660 323.3 690 330.7 720 328.2C750 325.7 780 313.3 810 317.8C840 322.3 870 343.7 885 354.3L900 365L900 601L885 601C870 601 840 601 810 601C780 601 750 601 720 601C690 601 660 601 630 601C600 601 570 601 540 601C510 601 480 601 450 601C420 601 390 601 360 601C330 601 300 601 270 601C240 601 210 601 180 601C150 601 120 601 90 601C60 601 30 601 15 601L0 601Z" fill="#200052"></path><path d="M0 354L15 360.5C30 367 60 380 90 380.2C120 380.3 150 367.7 180 365.8C210 364 240 373 270 379.5C300 386 330 390 360 397.3C390 404.7 420 415.3 450 423.3C480 431.3 510 436.7 540 437.3C570 438 600 434 630 431.7C660 429.3 690 428.7 720 422.2C750 415.7 780 403.3 810 396.8C840 390.3 870 389.7 885 389.3L900 389L900 601L885 601C870 601 840 601 810 601C780 601 750 601 720 601C690 601 660 601 630 601C600 601 570 601 540 601C510 601 480 601 450 601C420 601 390 601 360 601C330 601 300 601 270 601C240 601 210 601 180 601C150 601 120 601 90 601C60 601 30 601 15 601L0 601Z" fill="#09072a"></path><path d="M0 427L15 434.8C30 442.7 60 458.3 90 460.8C120 463.3 150 452.7 180 445.3C210 438 240 434 270 436.5C300 439 330 448 360 448.8C390 449.7 420 442.3 450 439.2C480 436 510 437 540 436.5C570 436 600 434 630 428.8C660 423.7 690 415.3 720 416.8C750 418.3 780 429.7 810 428.8C840 428 870 415 885 408.5L900 402L900 601L885 601C870 601 840 601 810 601C780 601 750 601 720 601C690 601 660 601 630 601C600 601 570 601 540 601C510 601 480 601 450 601C420 601 390 601 360 601C330 601 300 601 270 601C240 601 210 601 180 601C150 601 120 601 90 601C60 601 30 601 15 601L0 601Z" fill="#00010e"></path><path d="M0 513L15 505.7C30 498.3 60 483.7 90 481.7C120 479.7 150 490.3 180 491C210 491.7 240 482.3 270 478.3C300 474.3 330 475.7 360 478.2C390 480.7 420 484.3 450 484.2C480 484 510 480 540 484.5C570 489 600 502 630 501.8C660 501.7 690 488.3 720 485.3C750 482.3 780 489.7 810 492.8C840 496 870 495 885 494.5L900 494L900 601L885 601C870 601 840 601 810 601C780 601 750 601 720 601C690 601 660 601 630 601C600 601 570 601 540 601C510 601 480 601 450 601C420 601 390 601 360 601C330 601 300 601 270 601C240 601 210 601 180 601C150 601 120 601 90 601C60 601 30 601 15 601L0 601Z" fill="#09072a"></path><path d="M0 509L15 514.2C30 519.3 60 529.7 90 537.7C120 545.7 150 551.3 180 553.7C210 556 240 555 270 551.7C300 548.3 330 542.7 360 535.5C390 528.3 420 519.7 450 521.7C480 523.7 510 536.3 540 545.7C570 555 600 561 630 558.2C660 555.3 690 543.7 720 538.5C750 533.3 780 534.7 810 536.7C840 538.7 870 541.3 885 542.7L900 544L900 601L885 601C870 601 840 601 810 601C780 601 750 601 720 601C690 601 660 601 630 601C600 601 570 601 540 601C510 601 480 601 450 601C420 601 390 601 360 601C330 601 300 601 270 601C240 601 210 601 180 601C150 601 120 601 90 601C60 601 30 601 15 601L0 601Z" fill="#200052"></path></svg>